<svg xmlns="http://www.w3.org/2000/svg" xmlns:xlink="http://www.w3.org/1999/xlink" viewBox="0 0 123.17 123.17"><defs><pattern id="_6_dpi_50_" data-name="6 dpi 50%" width="48" height="48" patternUnits="userSpaceOnUse" viewBox="0 0 48 48"><rect width="48" height="48" fill="none"/><circle cx="24" cy="48" r="6" fill="#231f20"/><circle cx="48" cy="48" r="6" fill="#231f20"/><circle cx="24" cy="24" r="6" fill="#231f20"/><circle cx="48" cy="24" r="6" fill="#231f20"/><circle cx="36" cy="36" r="6" fill="#231f20"/><circle cx="12" cy="36" r="6" fill="#231f20"/><circle cx="36" cy="12" r="6" fill="#231f20"/><circle cx="12" cy="12" r="6" fill="#231f20"/><circle cy="48" r="6" fill="#231f20"/><circle cy="24" r="6" fill="#231f20"/><circle cx="24" r="6" fill="#231f20"/><circle cx="48" r="6" fill="#231f20"/><circle r="6" fill="#231f20"/></pattern></defs><g id="Layer_2" data-name="Layer 2"><g id="Draw_Button" data-name="Draw Button"><rect x="3" y="3" width="117.17" height="117.17" fill="#fff" stroke-miterlimit="10" stroke-width="6" stroke="url(#_6_dpi_50_)"/><path d="M49.69,25.61,25.61,49.7a3.89,3.89,0,0,0,0,5.52L56.82,86.43a3.77,3.77,0,0,0,1.58.95L93.61,98.52a4,4,0,0,0,1.19.18,3.9,3.9,0,0,0,3.72-5.08L87.39,58.4a4,4,0,0,0-1-1.59l-31.2-31.2a3.92,3.92,0,0,0-5.53,0ZM87,83l-4,4L62.66,80.53A9,9,0,0,1,64,78.8c1.92-1.92,5.54-3.09,8.2-3.52A3.9,3.9,0,0,0,75.44,72c.37-2.59,1.44-6,3.36-8a9.08,9.08,0,0,1,1.75-1.31Z"/></g></g></svg>