<svg xmlns="http://www.w3.org/2000/svg" xmlns:xlink="http://www.w3.org/1999/xlink" viewBox="0 0 225 225"><defs><pattern id="_6_dpi_50_" data-name="6 dpi 50%" width="48" height="48" patternUnits="userSpaceOnUse" viewBox="0 0 48 48"><rect width="48" height="48" fill="none"/><circle cx="24" cy="48" r="6" fill="#231f20"/><circle cx="48" cy="48" r="6" fill="#231f20"/><circle cx="24" cy="24" r="6" fill="#231f20"/><circle cx="48" cy="24" r="6" fill="#231f20"/><circle cx="36" cy="36" r="6" fill="#231f20"/><circle cx="12" cy="36" r="6" fill="#231f20"/><circle cx="36" cy="12" r="6" fill="#231f20"/><circle cx="12" cy="12" r="6" fill="#231f20"/><circle cy="48" r="6" fill="#231f20"/><circle cy="24" r="6" fill="#231f20"/><circle cx="24" r="6" fill="#231f20"/><circle cx="48" r="6" fill="#231f20"/><circle r="6" fill="#231f20"/></pattern></defs><g id="Layer_2" data-name="Layer 2"><g id="MINT_Button" data-name="MINT Button"><circle cx="112.5" cy="112.5" r="100" fill="#f2f2f2"/><path d="M112.5,225A112.5,112.5,0,1,1,225,112.5,112.63,112.63,0,0,1,112.5,225Zm0-200A87.5,87.5,0,1,0,200,112.5,87.6,87.6,0,0,0,112.5,25Z" fill="url(#_6_dpi_50_)"/><text transform="translate(49.81 99.41)" font-size="36" font-family="Helvetica-Bold, Helvetica" font-weight="700">READ<tspan x="102.01" y="0" letter-spacing="-0.02em">Y</tspan><tspan x="38.01" y="31" letter-spacing="-0.02em">T</tspan><tspan x="59.37" y="31">O</tspan><tspan x="12.71" y="62">MINT!</tspan></text></g></g></svg>