<svg xmlns="http://www.w3.org/2000/svg" xmlns:xlink="http://www.w3.org/1999/xlink" viewBox="0 0 226 226"><defs><pattern id="_6_dpi_50_" data-name="6 dpi 50%" width="48" height="48" patternUnits="userSpaceOnUse" viewBox="0 0 48 48"><rect width="48" height="48" fill="none"/><circle cx="24" cy="48" r="6" fill="#231f20"/><circle cx="48" cy="48" r="6" fill="#231f20"/><circle cx="24" cy="24" r="6" fill="#231f20"/><circle cx="48" cy="24" r="6" fill="#231f20"/><circle cx="36" cy="36" r="6" fill="#231f20"/><circle cx="12" cy="36" r="6" fill="#231f20"/><circle cx="36" cy="12" r="6" fill="#231f20"/><circle cx="12" cy="12" r="6" fill="#231f20"/><circle cy="48" r="6" fill="#231f20"/><circle cy="24" r="6" fill="#231f20"/><circle cx="24" r="6" fill="#231f20"/><circle cx="48" r="6" fill="#231f20"/><circle r="6" fill="#231f20"/></pattern></defs><g id="Layer_2" data-name="Layer 2"><g id="MINT_Button" data-name="MINT Button"><circle cx="113" cy="113" r="112.5" fill="#fff" stroke-miterlimit="10" stroke="url(#_6_dpi_50_)"/><path d="M113,225.5A112.5,112.5,0,1,1,225.5,113,112.63,112.63,0,0,1,113,225.5Zm0-200A87.5,87.5,0,1,0,200.5,113,87.6,87.6,0,0,0,113,25.5Z" stroke-miterlimit="10" fill="url(#_6_dpi_50_)" stroke="url(#_6_dpi_50_)"/><circle cx="113" cy="113" r="94.7" fill="#ff3f45"/><text font-size="45.23" fill="#fff" font-family="Helvetica-Bold, Helvetica" font-weight="700"><tspan x="53.41" y="131.37">MINT!</tspan></text></g></g></svg>