<svg xmlns="http://www.w3.org/2000/svg" xmlns:xlink="http://www.w3.org/1999/xlink" viewBox="0 0 123.17 123.17"><defs><pattern id="_6_dpi_60_" data-name="6 dpi 60%" width="48" height="48" patternUnits="userSpaceOnUse" viewBox="0 0 48 48"><rect width="48" height="48" fill="none"/><path d="M24,55.2A7.2,7.2,0,1,0,16.8,48,7.2,7.2,0,0,0,24,55.2Z" fill="#231f20"/><path d="M48,55.2A7.2,7.2,0,1,0,40.8,48,7.2,7.2,0,0,0,48,55.2Z" fill="#231f20"/><path d="M24,31.2A7.2,7.2,0,1,0,16.8,24,7.2,7.2,0,0,0,24,31.2Z" fill="#231f20"/><path d="M48,31.2A7.2,7.2,0,1,0,40.8,24,7.2,7.2,0,0,0,48,31.2Z" fill="#231f20"/><path d="M36,43.2A7.2,7.2,0,1,0,28.8,36,7.2,7.2,0,0,0,36,43.2Z" fill="#231f20"/><path d="M12,43.2A7.2,7.2,0,1,0,4.8,36,7.2,7.2,0,0,0,12,43.2Z" fill="#231f20"/><path d="M36,19.2A7.2,7.2,0,1,0,28.8,12,7.2,7.2,0,0,0,36,19.2Z" fill="#231f20"/><path d="M12,19.2A7.2,7.2,0,1,0,4.8,12,7.2,7.2,0,0,0,12,19.2Z" fill="#231f20"/><path d="M0,55.2A7.2,7.2,0,0,0,0,40.8,7.2,7.2,0,0,0-7.2,48,7.2,7.2,0,0,0,0,55.2Z" fill="#231f20"/><path d="M0,31.2A7.2,7.2,0,0,0,0,16.8,7.2,7.2,0,0,0-7.2,24,7.2,7.2,0,0,0,0,31.2Z" fill="#231f20"/><path d="M24,7.2A7.2,7.2,0,0,0,31.2,0,7.2,7.2,0,0,0,24-7.2,7.2,7.2,0,0,0,16.8,0,7.2,7.2,0,0,0,24,7.2Z" fill="#231f20"/><path d="M48,7.2A7.2,7.2,0,0,0,55.2,0,7.2,7.2,0,0,0,48-7.2,7.2,7.2,0,0,0,40.8,0,7.2,7.2,0,0,0,48,7.2Z" fill="#231f20"/><path d="M0,7.2A7.2,7.2,0,0,0,7.2,0,7.2,7.2,0,0,0,0-7.2,7.2,7.2,0,0,0-7.2,0,7.2,7.2,0,0,0,0,7.2Z" fill="#231f20"/></pattern></defs><g id="Layer_2" data-name="Layer 2"><g id="BLACK_Draw_Button" data-name="BLACK Draw Button"><rect x="3" y="3" width="117.17" height="117.17" stroke-miterlimit="10" stroke-width="6" stroke="url(#_6_dpi_60_)"/><path d="M49.69,25.61,25.61,49.7a3.89,3.89,0,0,0,0,5.52L56.82,86.43a3.77,3.77,0,0,0,1.58.95L93.61,98.52a4,4,0,0,0,1.19.18,3.9,3.9,0,0,0,3.72-5.08L87.39,58.4a4,4,0,0,0-1-1.59l-31.2-31.2a3.92,3.92,0,0,0-5.53,0ZM87,83l-4,4L62.66,80.53A9,9,0,0,1,64,78.8c1.92-1.92,5.54-3.09,8.2-3.52A3.9,3.9,0,0,0,75.44,72c.37-2.59,1.44-6,3.36-8a9.08,9.08,0,0,1,1.75-1.31Z" fill="#fff"/></g></g></svg>