<svg xmlns="http://www.w3.org/2000/svg" xmlns:xlink="http://www.w3.org/1999/xlink" viewBox="0 0 275.27 121.26"><defs><pattern id="_6_dpi_50_" data-name="6 dpi 50%" width="48" height="48" patternUnits="userSpaceOnUse" viewBox="0 0 48 48"><rect width="48" height="48" fill="none"/><circle cx="24" cy="48" r="6" fill="#231f20"/><circle cx="48" cy="48" r="6" fill="#231f20"/><circle cx="24" cy="24" r="6" fill="#231f20"/><circle cx="48" cy="24" r="6" fill="#231f20"/><circle cx="36" cy="36" r="6" fill="#231f20"/><circle cx="12" cy="36" r="6" fill="#231f20"/><circle cx="36" cy="12" r="6" fill="#231f20"/><circle cx="12" cy="12" r="6" fill="#231f20"/><circle cy="48" r="6" fill="#231f20"/><circle cy="24" r="6" fill="#231f20"/><circle cx="24" r="6" fill="#231f20"/><circle cx="48" r="6" fill="#231f20"/><circle r="6" fill="#231f20"/></pattern></defs><g id="Layer_2" data-name="Layer 2"><g id="ConnectWalletButton"><polygon points="4 104.34 4 26.16 271.27 4.34 271.27 117.07 4 104.34" fill="#fff" stroke="#fff" stroke-miterlimit="10" stroke-width="8"/><polygon points="4 104.34 4 26.16 271.27 4.34 271.27 117.07 4 104.34" fill="#fff" stroke-miterlimit="10" stroke-width="8" stroke="url(#_6_dpi_50_)"/><text transform="translate(45.91 61.34)" font-size="36" font-family="Helvetica-Bold, Helvetica" font-weight="700">CONNECT<tspan x="0" y="31" letter-spacing="-0.05em">W</tspan><tspan x="32.01" y="31">ALLET</tspan></text></g></g></svg>