<svg xmlns="http://www.w3.org/2000/svg" xmlns:xlink="http://www.w3.org/1999/xlink" viewBox="0 0 123.17 123.17"><defs><pattern id="_6_dpi_50_" data-name="6 dpi 50%" width="48" height="48" patternUnits="userSpaceOnUse" viewBox="0 0 48 48"><rect width="48" height="48" fill="none"/><circle cx="24" cy="48" r="6" fill="#231f20"/><circle cx="48" cy="48" r="6" fill="#231f20"/><circle cx="24" cy="24" r="6" fill="#231f20"/><circle cx="48" cy="24" r="6" fill="#231f20"/><circle cx="36" cy="36" r="6" fill="#231f20"/><circle cx="12" cy="36" r="6" fill="#231f20"/><circle cx="36" cy="12" r="6" fill="#231f20"/><circle cx="12" cy="12" r="6" fill="#231f20"/><circle cy="48" r="6" fill="#231f20"/><circle cy="24" r="6" fill="#231f20"/><circle cx="24" r="6" fill="#231f20"/><circle cx="48" r="6" fill="#231f20"/><circle r="6" fill="#231f20"/></pattern></defs><g id="Layer_2" data-name="Layer 2"><g id="Fill_Button" data-name="Fill Button"><rect x="3" y="3" width="117.17" height="117.17" fill="#fff" stroke-miterlimit="10" stroke-width="6" stroke="url(#_6_dpi_50_)"/><path d="M61.58,21.18a7.05,7.05,0,0,0-6,3.3C47.15,37.7,32.72,61.9,32.72,73.13a28.86,28.86,0,1,0,57.72,0C90.44,61.9,76,37.7,67.56,24.48A7.06,7.06,0,0,0,61.58,21.18Z"/></g></g></svg>