<svg xmlns="http://www.w3.org/2000/svg" viewBox="0 0 121.17 121.17"><g id="Layer_2" data-name="Layer 2"><g id="PURPLE_Draw_Button" data-name="PURPLE Draw Button"><rect x="2" y="2" width="117.17" height="117.17" fill="#ad00ff" stroke="#fff" stroke-miterlimit="10" stroke-width="4"/><path d="M48.69,24.61,24.61,48.7a3.89,3.89,0,0,0,0,5.52L55.82,85.43a3.77,3.77,0,0,0,1.58.95L92.61,97.52a4,4,0,0,0,1.19.18,3.9,3.9,0,0,0,3.72-5.08L86.39,57.4a4,4,0,0,0-1-1.59l-31.2-31.2a3.92,3.92,0,0,0-5.53,0ZM86,82l-4,4L61.66,79.53A9,9,0,0,1,63,77.8c1.92-1.92,5.54-3.09,8.2-3.52A3.9,3.9,0,0,0,74.44,71c.37-2.59,1.44-6,3.36-8a9.08,9.08,0,0,1,1.75-1.31Z"/></g></g></svg>