<svg xmlns="http://www.w3.org/2000/svg" xmlns:xlink="http://www.w3.org/1999/xlink" viewBox="0 0 123.17 123.17"><defs><pattern id="_6_dpi_60_" data-name="6 dpi 60%" width="48" height="48" patternUnits="userSpaceOnUse" viewBox="0 0 48 48"><rect width="48" height="48" fill="none"/><path d="M24,55.2A7.2,7.2,0,1,0,16.8,48,7.2,7.2,0,0,0,24,55.2Z" fill="#231f20"/><path d="M48,55.2A7.2,7.2,0,1,0,40.8,48,7.2,7.2,0,0,0,48,55.2Z" fill="#231f20"/><path d="M24,31.2A7.2,7.2,0,1,0,16.8,24,7.2,7.2,0,0,0,24,31.2Z" fill="#231f20"/><path d="M48,31.2A7.2,7.2,0,1,0,40.8,24,7.2,7.2,0,0,0,48,31.2Z" fill="#231f20"/><path d="M36,43.2A7.2,7.2,0,1,0,28.8,36,7.2,7.2,0,0,0,36,43.2Z" fill="#231f20"/><path d="M12,43.2A7.2,7.2,0,1,0,4.8,36,7.2,7.2,0,0,0,12,43.2Z" fill="#231f20"/><path d="M36,19.2A7.2,7.2,0,1,0,28.8,12,7.2,7.2,0,0,0,36,19.2Z" fill="#231f20"/><path d="M12,19.2A7.2,7.2,0,1,0,4.8,12,7.2,7.2,0,0,0,12,19.2Z" fill="#231f20"/><path d="M0,55.2A7.2,7.2,0,0,0,0,40.8,7.2,7.2,0,0,0-7.2,48,7.2,7.2,0,0,0,0,55.2Z" fill="#231f20"/><path d="M0,31.2A7.2,7.2,0,0,0,0,16.8,7.2,7.2,0,0,0-7.2,24,7.2,7.2,0,0,0,0,31.2Z" fill="#231f20"/><path d="M24,7.2A7.2,7.2,0,0,0,31.2,0,7.2,7.2,0,0,0,24-7.2,7.2,7.2,0,0,0,16.8,0,7.2,7.2,0,0,0,24,7.2Z" fill="#231f20"/><path d="M48,7.2A7.2,7.2,0,0,0,55.2,0,7.2,7.2,0,0,0,48-7.2,7.2,7.2,0,0,0,40.8,0,7.2,7.2,0,0,0,48,7.2Z" fill="#231f20"/><path d="M0,7.2A7.2,7.2,0,0,0,7.2,0,7.2,7.2,0,0,0,0-7.2,7.2,7.2,0,0,0-7.2,0,7.2,7.2,0,0,0,0,7.2Z" fill="#231f20"/></pattern></defs><g id="Layer_2" data-name="Layer 2"><g id="Black_Erase_Button" data-name="Black Erase Button"><rect x="3" y="3" width="117.17" height="117.17" stroke-miterlimit="10" stroke-width="6" stroke="url(#_6_dpi_60_)"/><path d="M45,27,23,49a8.13,8.13,0,0,0,0,11.38l43.78,43.8a8.11,8.11,0,0,0,11.38,0l22.06-22.06a8.11,8.11,0,0,0,0-11.38L56.41,27A8.1,8.1,0,0,0,45,27ZM94.3,76.43,72.44,98.29,50.71,76.55,72.56,54.69Z" fill="#fff"/></g></g></svg>