<?xml version="1.0" encoding="utf-8"?>
<!-- Generator: Adobe Illustrator 26.0.2, SVG Export Plug-In . SVG Version: 6.00 Build 0)  -->
<svg version="1.1" xmlns="http://www.w3.org/2000/svg" xmlns:xlink="http://www.w3.org/1999/xlink" x="0px" y="0px" width="1920px"
	 height="1080px" viewBox="0 0 1920 1080" enable-background="new 0 0 1920 1080" xml:space="preserve">
<pattern  width="48" height="48" patternUnits="userSpaceOnUse" id="_x36__dpi_50_x25_" viewBox="6 -54 48 48" overflow="visible">
	<g>
		<rect x="6" y="-54" fill="none" width="48" height="48"/>
		<g>
			<circle fill="#231F20" cx="30" cy="-6" r="6"/>
			<circle fill="#231F20" cx="54" cy="-6" r="6"/>
			<circle fill="#231F20" cx="30" cy="-30" r="6"/>
			<circle fill="#231F20" cx="54" cy="-30" r="6"/>
			<circle fill="#231F20" cx="42" cy="-18" r="6"/>
			<circle fill="#231F20" cx="18" cy="-18" r="6"/>
			<circle fill="#231F20" cx="42" cy="-42" r="6"/>
			<circle fill="#231F20" cx="18" cy="-42" r="6"/>
		</g>
		<g>
			<circle fill="#231F20" cx="6" cy="-6" r="6"/>
			<circle fill="#231F20" cx="6" cy="-30" r="6"/>
		</g>
		<g>
			<circle fill="#231F20" cx="30" cy="-54" r="6"/>
			<circle fill="#231F20" cx="54" cy="-54" r="6"/>
		</g>
		<g>
			<circle fill="#231F20" cx="6" cy="-54" r="6"/>
		</g>
	</g>
</pattern>
<pattern  width="48" height="48" patternUnits="userSpaceOnUse" id="_x36__dpi_60_x25_" viewBox="7.2 -55.2 48 48" overflow="visible">
	<g>
		<rect x="7.2" y="-55.2" fill="none" width="48" height="48"/>
		<g>
			<path fill="#231F20" d="M31.2,0c3.98,0,7.2-3.22,7.2-7.2c0-3.98-3.22-7.2-7.2-7.2c-3.98,0-7.2,3.22-7.2,7.2
				C24-3.22,27.22,0,31.2,0z"/>
			<path fill="#231F20" d="M55.2,0c3.98,0,7.2-3.22,7.2-7.2c0-3.98-3.22-7.2-7.2-7.2c-3.98,0-7.2,3.22-7.2,7.2
				C48-3.22,51.22,0,55.2,0z"/>
			<path fill="#231F20" d="M31.2-24c3.98,0,7.2-3.22,7.2-7.2c0-3.98-3.22-7.2-7.2-7.2c-3.98,0-7.2,3.22-7.2,7.2
				C24-27.22,27.22-24,31.2-24z"/>
			<path fill="#231F20" d="M55.2-24c3.98,0,7.2-3.22,7.2-7.2c0-3.98-3.22-7.2-7.2-7.2c-3.98,0-7.2,3.22-7.2,7.2
				C48-27.22,51.22-24,55.2-24z"/>
			<path fill="#231F20" d="M43.2-12c3.98,0,7.2-3.22,7.2-7.2c0-3.98-3.22-7.2-7.2-7.2c-3.98,0-7.2,3.22-7.2,7.2
				C36-15.22,39.22-12,43.2-12z"/>
			<path fill="#231F20" d="M19.2-12c3.98,0,7.2-3.22,7.2-7.2c0-3.98-3.22-7.2-7.2-7.2c-3.98,0-7.2,3.22-7.2,7.2
				C12-15.22,15.22-12,19.2-12z"/>
			<path fill="#231F20" d="M43.2-36c3.98,0,7.2-3.22,7.2-7.2c0-3.98-3.22-7.2-7.2-7.2c-3.98,0-7.2,3.22-7.2,7.2
				C36-39.22,39.22-36,43.2-36z"/>
			<path fill="#231F20" d="M19.2-36c3.98,0,7.2-3.22,7.2-7.2c0-3.98-3.22-7.2-7.2-7.2c-3.98,0-7.2,3.22-7.2,7.2
				C12-39.22,15.22-36,19.2-36z"/>
		</g>
		<g>
			<path fill="#231F20" d="M7.2,0c3.98,0,7.2-3.22,7.2-7.2c0-3.98-3.22-7.2-7.2-7.2C3.22-14.4,0-11.18,0-7.2C0-3.22,3.22,0,7.2,0z"
				/>
			<path fill="#231F20" d="M7.2-24c3.98,0,7.2-3.22,7.2-7.2c0-3.98-3.22-7.2-7.2-7.2c-3.98,0-7.2,3.22-7.2,7.2
				C0-27.22,3.22-24,7.2-24z"/>
		</g>
		<g>
			<path fill="#231F20" d="M31.2-48c3.98,0,7.2-3.22,7.2-7.2c0-3.98-3.22-7.2-7.2-7.2c-3.98,0-7.2,3.22-7.2,7.2
				C24-51.22,27.22-48,31.2-48z"/>
			<path fill="#231F20" d="M55.2-48c3.98,0,7.2-3.22,7.2-7.2c0-3.98-3.22-7.2-7.2-7.2c-3.98,0-7.2,3.22-7.2,7.2
				C48-51.22,51.22-48,55.2-48z"/>
		</g>
		<g>
			<path fill="#231F20" d="M7.2-48c3.98,0,7.2-3.22,7.2-7.2c0-3.98-3.22-7.2-7.2-7.2c-3.98,0-7.2,3.22-7.2,7.2
				C0-51.22,3.22-48,7.2-48z"/>
		</g>
	</g>
</pattern>
<pattern  width="48" height="48" patternUnits="userSpaceOnUse" id="_x36__dpi_90_x25_" viewBox="10.8 -58.8 48 48" overflow="visible">
	<g>
		<rect x="10.8" y="-58.8" fill="none" width="48" height="48"/>
		<g>
			<path fill="#231F20" d="M34.8,0c5.96,0,10.8-4.83,10.8-10.8c0-5.96-4.84-10.8-10.8-10.8c-5.96,0-10.8,4.84-10.8,10.8
				C24-4.83,28.83,0,34.8,0z"/>
			<circle fill="#231F20" cx="58.8" cy="-10.8" r="10.8"/>
			<path fill="#231F20" d="M34.8-24c5.96,0,10.8-4.83,10.8-10.8c0-5.96-4.84-10.8-10.8-10.8c-5.96,0-10.8,4.84-10.8,10.8
				C24-28.83,28.83-24,34.8-24z"/>
			<circle fill="#231F20" cx="58.8" cy="-34.8" r="10.8"/>
			<path fill="#231F20" d="M46.8-12c5.96,0,10.8-4.83,10.8-10.8c0-5.96-4.84-10.8-10.8-10.8c-5.96,0-10.8,4.84-10.8,10.8
				C36-16.83,40.83-12,46.8-12z"/>
			<path fill="#231F20" d="M22.8-12c5.96,0,10.8-4.83,10.8-10.8c0-5.96-4.84-10.8-10.8-10.8c-5.96,0-10.8,4.84-10.8,10.8
				C12-16.83,16.83-12,22.8-12z"/>
			<path fill="#231F20" d="M46.8-36c5.96,0,10.8-4.83,10.8-10.8c0-5.96-4.84-10.8-10.8-10.8c-5.96,0-10.8,4.84-10.8,10.8
				C36-40.83,40.83-36,46.8-36z"/>
			<path fill="#231F20" d="M22.8-36c5.96,0,10.8-4.83,10.8-10.8c0-5.96-4.84-10.8-10.8-10.8c-5.96,0-10.8,4.84-10.8,10.8
				C12-40.83,16.83-36,22.8-36z"/>
		</g>
		<g>
			<circle fill="#231F20" cx="10.8" cy="-10.8" r="10.8"/>
			<circle fill="#231F20" cx="10.8" cy="-34.8" r="10.8"/>
		</g>
		<g>
			<path fill="#231F20" d="M34.8-48c5.96,0,10.8-4.83,10.8-10.8c0-5.96-4.84-10.8-10.8-10.8c-5.96,0-10.8,4.84-10.8,10.8
				C24-52.83,28.83-48,34.8-48z"/>
			<circle fill="#231F20" cx="58.8" cy="-58.8" r="10.8"/>
		</g>
		<g>
			<circle fill="#231F20" cx="10.8" cy="-58.8" r="10.8"/>
		</g>
	</g>
</pattern>
<g id="Layer_1">
</g>
<g id="Layer_2">
</g>
<g id="Frame">
	<circle fill="#F2F2F2" stroke="#FFFFFF" stroke-width="25" stroke-miterlimit="10" cx="1383" cy="902.36" r="100"/>
	<path fill="url(#_x36__dpi_90_x25_)" d="M433.36,35.09l247.9,7.27v96.36h672.1v800h-920V53.27V35.09z M1292.27,818.73V211.45
		H572.43v607.27H1292.27z"/>
</g>
<g id="Palette">
	<g id="Colours">
		
			<rect x="803.69" y="840.55" fill="#FF9900" stroke="#FFFFFF" stroke-width="4" stroke-miterlimit="10" width="72.83" height="76.36"/>
		
			<rect x="894.92" y="840.55" fill="#FFF500" stroke="#FFFFFF" stroke-width="4" stroke-miterlimit="10" width="72.83" height="76.36"/>
		
			<rect x="986.15" y="840.55" fill="#00FF94" stroke="#FFFFFF" stroke-width="4" stroke-miterlimit="10" width="72.83" height="76.36"/>
		
			<rect x="1077.39" y="840.55" fill="#00D1FF" stroke="#FFFFFF" stroke-width="4" stroke-miterlimit="10" width="72.83" height="76.36"/>
		
			<rect x="1168.62" y="840.55" fill="#AD00FF" stroke="#FFFFFF" stroke-width="4" stroke-miterlimit="10" width="72.83" height="76.36"/>
		
			<rect x="712.45" y="840.55" fill="#FF2121" stroke="#FFFFFF" stroke-width="4" stroke-miterlimit="10" width="72.83" height="76.36"/>
		<rect x="621.22" y="840.55" fill="#FFFFFF" width="72.83" height="76.36"/>
		<rect x="529.99" y="840.55" stroke="#FFFFFF" stroke-width="4" stroke-miterlimit="10" width="72.83" height="76.36"/>
	</g>
</g>
<g id="ConnectWalletButton">
	<polygon fill="#FFFFFF" stroke="#FFFFFF" stroke-width="8" stroke-miterlimit="10" points="1062.45,160.91 1062.45,82.73 
		1329.73,60.91 1329.73,173.64 	"/>
	<polygon fill="#FFFFFF" stroke="url(#_x36__dpi_50_x25_)" stroke-width="8" stroke-miterlimit="10" points="1062.45,160.91 
		1062.45,82.73 1329.73,60.91 1329.73,173.64 	"/>
	<g>
		<path d="M1125.39,115.98c-1.93,1.77-4.41,2.65-7.42,2.65c-3.73,0-6.66-1.2-8.79-3.59c-2.13-2.4-3.2-5.7-3.2-9.88
			c0-4.52,1.21-8.01,3.64-10.46c2.11-2.13,4.79-3.2,8.05-3.2c4.36,0,7.55,1.43,9.56,4.29c1.11,1.61,1.71,3.22,1.79,4.83h-5.41
			c-0.35-1.24-0.8-2.18-1.35-2.81c-0.98-1.12-2.44-1.69-4.38-1.69c-1.97,0-3.52,0.79-4.66,2.38s-1.71,3.83-1.71,6.74
			s0.6,5.08,1.8,6.53s2.73,2.17,4.58,2.17c1.9,0,3.35-0.62,4.34-1.86c0.55-0.67,1.01-1.67,1.37-3.01h5.36
			C1128.5,111.91,1127.31,114.21,1125.39,115.98z"/>
		<path d="M1144.56,118.63c-3.7,0-6.53-1.01-8.49-3.02c-2.62-2.47-3.94-6.04-3.94-10.69c0-4.75,1.31-8.31,3.94-10.69
			c1.96-2.02,4.79-3.02,8.49-3.02s6.53,1.01,8.49,3.02c2.61,2.38,3.92,5.94,3.92,10.69c0,4.65-1.31,8.21-3.92,10.69
			C1151.1,117.62,1148.27,118.63,1144.56,118.63z M1149.68,111.67c1.25-1.58,1.88-3.83,1.88-6.75c0-2.91-0.63-5.15-1.89-6.74
			s-2.96-2.38-5.11-2.38s-3.86,0.79-5.13,2.37s-1.92,3.83-1.92,6.75s0.64,5.17,1.92,6.75s2.99,2.37,5.13,2.37
			S1148.41,113.25,1149.68,111.67z"/>
		<path d="M1182.06,117.91h-5.41l-10.58-18.4v18.4h-5.04V92h5.68l10.32,18.09V92h5.04V117.91z"/>
		<path d="M1208.06,117.91h-5.41l-10.58-18.4v18.4h-5.04V92h5.68l10.32,18.09V92h5.04V117.91z"/>
		<path d="M1231.14,106.59h-12.59v6.66h14.34v4.66h-19.63V92h19v4.59h-13.71v5.5h12.59V106.59z"/>
		<path d="M1255.39,115.98c-1.93,1.77-4.41,2.65-7.42,2.65c-3.73,0-6.66-1.2-8.79-3.59c-2.13-2.4-3.2-5.7-3.2-9.88
			c0-4.52,1.21-8.01,3.64-10.46c2.11-2.13,4.79-3.2,8.05-3.2c4.36,0,7.55,1.43,9.56,4.29c1.11,1.61,1.71,3.22,1.79,4.83h-5.41
			c-0.35-1.24-0.8-2.18-1.35-2.81c-0.98-1.12-2.44-1.69-4.38-1.69c-1.97,0-3.52,0.79-4.66,2.38s-1.71,3.83-1.71,6.74
			s0.6,5.08,1.8,6.53s2.73,2.17,4.58,2.17c1.9,0,3.35-0.62,4.34-1.86c0.55-0.67,1.01-1.67,1.37-3.01h5.36
			C1258.51,111.91,1257.32,114.21,1255.39,115.98z"/>
		<path d="M1281.94,92v4.59h-7.75v21.32h-5.45V96.59h-7.79V92H1281.94z"/>
		<path d="M1132.31,123h5.5l-7.29,25.91h-5.17l-3.13-15.15l-0.91-5.01l-0.91,5.01l-3.13,15.15h-5.03l-7.35-25.91h5.75l3.43,14.84
			l0.74,4.13l0.76-4.04l2.92-14.92h5.71l3.08,14.84l0.79,4.13l0.79-3.97L1132.31,123z"/>
		<path d="M1154.29,143.58h-9.54l-1.79,5.33h-5.66l9.25-25.91h6.12l9.18,25.91h-5.87L1154.29,143.58z M1152.77,139.12l-3.23-10.2
			l-3.34,10.2H1152.77z"/>
		<path d="M1165.11,123h5.41v21.25h12.83v4.66h-18.25V123z"/>
		<path d="M1187.1,123h5.41v21.25h12.83v4.66h-18.25V123z"/>
		<path d="M1227.13,137.59h-12.59v6.66h14.34v4.66h-19.63V123h19v4.59h-13.71v5.5h12.59V137.59z"/>
		<path d="M1251.93,123v4.59h-7.75v21.32h-5.45v-21.32h-7.79V123H1251.93z"/>
	</g>
</g>
<g id="MINT_Button">
	
		<circle fill="#F2F2F2" stroke="url(#_x36__dpi_50_x25_)" stroke-width="25" stroke-miterlimit="10" cx="1383" cy="902.36" r="100"/>
	<g>
		<path d="M1339.79,916.91h-5.04V891h7.88l4.71,20.37l4.68-20.37h7.79v25.91h-5.04v-17.53c0-0.5,0.01-1.21,0.02-2.12
			s0.02-1.61,0.02-2.1l-4.9,21.74h-5.26l-4.87-21.74c0,0.49,0.01,1.19,0.02,2.1s0.02,1.61,0.02,2.12V916.91z"/>
		<path d="M1364.4,891h5.38v25.91h-5.38V891z"/>
		<path d="M1395.78,916.91h-5.41l-10.58-18.4v18.4h-5.04V891h5.68l10.32,18.09V891h5.04V916.91z"/>
		<path d="M1419.65,891v4.59h-7.75v21.32h-5.45v-21.32h-7.79V891H1419.65z"/>
		<path d="M1429.53,897.66l-1.42,12.09h-2.62l-1.46-12.09v-6.57h5.5V897.66z M1429.39,911.83v5.08h-5.24v-5.08H1429.39z"/>
	</g>
</g>
<g id="Layer_8">
</g>
<g id="Draw_Button">
	
		<rect x="417.45" y="240.64" fill="#FFFFFF" stroke="url(#_x36__dpi_50_x25_)" stroke-width="6" stroke-miterlimit="10" width="117.17" height="117.17"/>
	<path d="M464.14,263.25l-24.08,24.08c-1.53,1.52-1.53,4,0,5.52l31.2,31.21c0.44,0.44,0.99,0.77,1.58,0.95l35.22,11.13
		c0.39,0.12,0.79,0.18,1.18,0.18c1.02,0,2.02-0.4,2.76-1.14c1.03-1.03,1.4-2.55,0.96-3.94l-11.13-35.22
		c-0.19-0.6-0.52-1.14-0.96-1.59l-31.2-31.2c-0.76-0.76-1.76-1.14-2.76-1.14S464.91,262.48,464.14,263.25z M501.41,320.61
		l-3.98,3.98l-20.31-6.43c0.39-0.65,0.84-1.24,1.33-1.73c1.92-1.92,5.54-3.09,8.2-3.52c1.69-0.27,3.01-1.61,3.25-3.31
		c0.37-2.59,1.44-6.05,3.36-7.97c0.49-0.49,1.1-0.91,1.75-1.3L501.41,320.61z"/>
</g>
<g id="RED_Draw_Button" display="none">
	
		<rect x="417.45" y="240.64" display="inline" fill="#FF2121" stroke="#FFFFFF" stroke-width="4" stroke-miterlimit="10" width="117.17" height="117.17"/>
	<path display="inline" d="M464.14,263.25l-24.08,24.08c-1.53,1.52-1.53,4,0,5.52l31.2,31.21c0.44,0.44,0.99,0.77,1.58,0.95
		l35.22,11.13c0.39,0.12,0.79,0.18,1.18,0.18c1.02,0,2.02-0.4,2.76-1.14c1.03-1.03,1.4-2.55,0.96-3.94l-11.13-35.22
		c-0.19-0.6-0.52-1.14-0.96-1.59l-31.2-31.2c-0.76-0.76-1.76-1.14-2.76-1.14S464.91,262.48,464.14,263.25z M501.41,320.61
		l-3.98,3.98l-20.31-6.43c0.39-0.65,0.84-1.24,1.33-1.73c1.92-1.92,5.54-3.09,8.2-3.52c1.69-0.27,3.01-1.61,3.25-3.31
		c0.37-2.59,1.44-6.05,3.36-7.97c0.49-0.49,1.1-0.91,1.75-1.3L501.41,320.61z"/>
</g>
<g id="ORANGE_Draw_Button" display="none">
	
		<rect x="417.45" y="240.64" display="inline" fill="#FF9900" stroke="#FFFFFF" stroke-width="4" stroke-miterlimit="10" width="117.17" height="117.17"/>
	<path display="inline" d="M464.14,263.25l-24.08,24.08c-1.53,1.52-1.53,4,0,5.52l31.2,31.21c0.44,0.44,0.99,0.77,1.58,0.95
		l35.22,11.13c0.39,0.12,0.79,0.18,1.18,0.18c1.02,0,2.02-0.4,2.76-1.14c1.03-1.03,1.4-2.55,0.96-3.94l-11.13-35.22
		c-0.19-0.6-0.52-1.14-0.96-1.59l-31.2-31.2c-0.76-0.76-1.76-1.14-2.76-1.14S464.91,262.48,464.14,263.25z M501.41,320.61
		l-3.98,3.98l-20.31-6.43c0.39-0.65,0.84-1.24,1.33-1.73c1.92-1.92,5.54-3.09,8.2-3.52c1.69-0.27,3.01-1.61,3.25-3.31
		c0.37-2.59,1.44-6.05,3.36-7.97c0.49-0.49,1.1-0.91,1.75-1.3L501.41,320.61z"/>
</g>
<g id="YELLOW_Draw_Button" display="none">
	
		<rect x="417.45" y="240.64" display="inline" fill="#FFF500" stroke="#FFFFFF" stroke-width="4" stroke-miterlimit="10" width="117.17" height="117.17"/>
	<path display="inline" d="M464.14,263.25l-24.08,24.08c-1.53,1.52-1.53,4,0,5.52l31.2,31.21c0.44,0.44,0.99,0.77,1.58,0.95
		l35.22,11.13c0.39,0.12,0.79,0.18,1.18,0.18c1.02,0,2.02-0.4,2.76-1.14c1.03-1.03,1.4-2.55,0.96-3.94l-11.13-35.22
		c-0.19-0.6-0.52-1.14-0.96-1.59l-31.2-31.2c-0.76-0.76-1.76-1.14-2.76-1.14S464.91,262.48,464.14,263.25z M501.41,320.61
		l-3.98,3.98l-20.31-6.43c0.39-0.65,0.84-1.24,1.33-1.73c1.92-1.92,5.54-3.09,8.2-3.52c1.69-0.27,3.01-1.61,3.25-3.31
		c0.37-2.59,1.44-6.05,3.36-7.97c0.49-0.49,1.1-0.91,1.75-1.3L501.41,320.61z"/>
</g>
<g id="GREEN_Draw_Button" display="none">
	
		<rect x="417.45" y="240.64" display="inline" fill="#00FF94" stroke="#FFFFFF" stroke-width="4" stroke-miterlimit="10" width="117.17" height="117.17"/>
	<path display="inline" d="M464.14,263.25l-24.08,24.08c-1.53,1.52-1.53,4,0,5.52l31.2,31.21c0.44,0.44,0.99,0.77,1.58,0.95
		l35.22,11.13c0.39,0.12,0.79,0.18,1.18,0.18c1.02,0,2.02-0.4,2.76-1.14c1.03-1.03,1.4-2.55,0.96-3.94l-11.13-35.22
		c-0.19-0.6-0.52-1.14-0.96-1.59l-31.2-31.2c-0.76-0.76-1.76-1.14-2.76-1.14S464.91,262.48,464.14,263.25z M501.41,320.61
		l-3.98,3.98l-20.31-6.43c0.39-0.65,0.84-1.24,1.33-1.73c1.92-1.92,5.54-3.09,8.2-3.52c1.69-0.27,3.01-1.61,3.25-3.31
		c0.37-2.59,1.44-6.05,3.36-7.97c0.49-0.49,1.1-0.91,1.75-1.3L501.41,320.61z"/>
</g>
<g id="BLUE_Draw_Button" display="none">
	
		<rect x="417.45" y="240.64" display="inline" fill="#00D1FF" stroke="#FFFFFF" stroke-width="4" stroke-miterlimit="10" width="117.17" height="117.17"/>
	<path display="inline" d="M464.14,263.25l-24.08,24.08c-1.53,1.52-1.53,4,0,5.52l31.2,31.21c0.44,0.44,0.99,0.77,1.58,0.95
		l35.22,11.13c0.39,0.12,0.79,0.18,1.18,0.18c1.02,0,2.02-0.4,2.76-1.14c1.03-1.03,1.4-2.55,0.96-3.94l-11.13-35.22
		c-0.19-0.6-0.52-1.14-0.96-1.59l-31.2-31.2c-0.76-0.76-1.76-1.14-2.76-1.14S464.91,262.48,464.14,263.25z M501.41,320.61
		l-3.98,3.98l-20.31-6.43c0.39-0.65,0.84-1.24,1.33-1.73c1.92-1.92,5.54-3.09,8.2-3.52c1.69-0.27,3.01-1.61,3.25-3.31
		c0.37-2.59,1.44-6.05,3.36-7.97c0.49-0.49,1.1-0.91,1.75-1.3L501.41,320.61z"/>
</g>
<g id="PURPLE_Draw_Button" display="none">
	
		<rect x="417.45" y="240.64" display="inline" fill="#AD00FF" stroke="#FFFFFF" stroke-width="4" stroke-miterlimit="10" width="117.17" height="117.17"/>
	<path display="inline" d="M464.14,263.25l-24.08,24.08c-1.53,1.52-1.53,4,0,5.52l31.2,31.21c0.44,0.44,0.99,0.77,1.58,0.95
		l35.22,11.13c0.39,0.12,0.79,0.18,1.18,0.18c1.02,0,2.02-0.4,2.76-1.14c1.03-1.03,1.4-2.55,0.96-3.94l-11.13-35.22
		c-0.19-0.6-0.52-1.14-0.96-1.59l-31.2-31.2c-0.76-0.76-1.76-1.14-2.76-1.14S464.91,262.48,464.14,263.25z M501.41,320.61
		l-3.98,3.98l-20.31-6.43c0.39-0.65,0.84-1.24,1.33-1.73c1.92-1.92,5.54-3.09,8.2-3.52c1.69-0.27,3.01-1.61,3.25-3.31
		c0.37-2.59,1.44-6.05,3.36-7.97c0.49-0.49,1.1-0.91,1.75-1.3L501.41,320.61z"/>
</g>
<g id="BLACK_Draw_Button" display="none">
	
		<rect x="417.45" y="240.64" display="inline" stroke="url(#_x36__dpi_60_x25_)" stroke-width="6" stroke-miterlimit="10" width="117.17" height="117.17"/>
	<path display="inline" fill="#FFFFFF" d="M464.14,263.25l-24.08,24.08c-1.53,1.52-1.53,4,0,5.52l31.2,31.21
		c0.44,0.44,0.99,0.77,1.58,0.95l35.22,11.13c0.39,0.12,0.79,0.18,1.18,0.18c1.02,0,2.02-0.4,2.76-1.14
		c1.03-1.03,1.4-2.55,0.96-3.94l-11.13-35.22c-0.19-0.6-0.52-1.14-0.96-1.59l-31.2-31.2c-0.76-0.76-1.76-1.14-2.76-1.14
		S464.91,262.48,464.14,263.25z M501.41,320.61l-3.98,3.98l-20.31-6.43c0.39-0.65,0.84-1.24,1.33-1.73c1.92-1.92,5.54-3.09,8.2-3.52
		c1.69-0.27,3.01-1.61,3.25-3.31c0.37-2.59,1.44-6.05,3.36-7.97c0.49-0.49,1.1-0.91,1.75-1.3L501.41,320.61z"/>
</g>
<g id="Fill_Button">
	
		<rect x="417.45" y="380.51" fill="#FFFFFF" stroke="url(#_x36__dpi_50_x25_)" stroke-width="6" stroke-miterlimit="10" width="117.17" height="117.17"/>
	<path d="M476.04,398.69c-2.29,0-4.58,1.1-5.98,3.3c-8.46,13.22-22.89,37.42-22.89,48.65c0,15.87,12.99,28.86,28.86,28.86
		s28.86-12.99,28.86-28.86c0-11.23-14.43-35.43-22.89-48.65C480.61,399.79,478.33,398.69,476.04,398.69z"/>
</g>
<g id="RED_FILL_Button" display="none">
	
		<rect x="417.45" y="380.51" display="inline" fill="#FF2121" stroke="#FFFFFF" stroke-width="4" stroke-miterlimit="10" width="117.17" height="117.17"/>
	<path display="inline" d="M476.04,398.69c-2.29,0-4.58,1.1-5.98,3.3c-8.46,13.22-22.89,37.42-22.89,48.65
		c0,15.87,12.99,28.86,28.86,28.86s28.86-12.99,28.86-28.86c0-11.23-14.43-35.43-22.89-48.65
		C480.61,399.79,478.33,398.69,476.04,398.69z"/>
</g>
<g id="ORANGE_FILL_Button" display="none">
	
		<rect x="417.45" y="380.51" display="inline" fill="#FF9900" stroke="#FFFFFF" stroke-width="4" stroke-miterlimit="10" width="117.17" height="117.17"/>
	<path display="inline" d="M476.04,398.69c-2.29,0-4.58,1.1-5.98,3.3c-8.46,13.22-22.89,37.42-22.89,48.65
		c0,15.87,12.99,28.86,28.86,28.86s28.86-12.99,28.86-28.86c0-11.23-14.43-35.43-22.89-48.65
		C480.61,399.79,478.33,398.69,476.04,398.69z"/>
</g>
<g id="YELLOW_FILL_Button" display="none">
	
		<rect x="417.45" y="380.51" display="inline" fill="#FFF500" stroke="#FFFFFF" stroke-width="4" stroke-miterlimit="10" width="117.17" height="117.17"/>
	<path display="inline" d="M476.04,398.69c-2.29,0-4.58,1.1-5.98,3.3c-8.46,13.22-22.89,37.42-22.89,48.65
		c0,15.87,12.99,28.86,28.86,28.86s28.86-12.99,28.86-28.86c0-11.23-14.43-35.43-22.89-48.65
		C480.61,399.79,478.33,398.69,476.04,398.69z"/>
</g>
<g id="GREEN_FILL_Button" display="none">
	
		<rect x="417.45" y="380.51" display="inline" fill="#00FF94" stroke="#FFFFFF" stroke-width="4" stroke-miterlimit="10" width="117.17" height="117.17"/>
	<path display="inline" d="M476.04,398.69c-2.29,0-4.58,1.1-5.98,3.3c-8.46,13.22-22.89,37.42-22.89,48.65
		c0,15.87,12.99,28.86,28.86,28.86s28.86-12.99,28.86-28.86c0-11.23-14.43-35.43-22.89-48.65
		C480.61,399.79,478.33,398.69,476.04,398.69z"/>
</g>
<g id="BLUE_FILL_Button" display="none">
	
		<rect x="417.45" y="380.51" display="inline" fill="#00D1FF" stroke="#FFFFFF" stroke-width="4" stroke-miterlimit="10" width="117.17" height="117.17"/>
	<path display="inline" d="M476.04,398.69c-2.29,0-4.58,1.1-5.98,3.3c-8.46,13.22-22.89,37.42-22.89,48.65
		c0,15.87,12.99,28.86,28.86,28.86s28.86-12.99,28.86-28.86c0-11.23-14.43-35.43-22.89-48.65
		C480.61,399.79,478.33,398.69,476.04,398.69z"/>
</g>
<g id="PURPLE_FILL_Button" display="none">
	
		<rect x="417.45" y="380.51" display="inline" fill="#AD00FF" stroke="#FFFFFF" stroke-width="4" stroke-miterlimit="10" width="117.17" height="117.17"/>
	<path display="inline" d="M476.04,398.69c-2.29,0-4.58,1.1-5.98,3.3c-8.46,13.22-22.89,37.42-22.89,48.65
		c0,15.87,12.99,28.86,28.86,28.86s28.86-12.99,28.86-28.86c0-11.23-14.43-35.43-22.89-48.65
		C480.61,399.79,478.33,398.69,476.04,398.69z"/>
</g>
<g id="BLACK_Fill_Button" display="none">
	
		<rect x="417.45" y="380.51" display="inline" stroke="url(#_x36__dpi_60_x25_)" stroke-width="6" stroke-miterlimit="10" width="117.17" height="117.17"/>
	<path display="inline" fill="#FFFFFF" d="M476.04,398.69c-2.29,0-4.58,1.1-5.98,3.3c-8.46,13.22-22.89,37.42-22.89,48.65
		c0,15.87,12.99,28.86,28.86,28.86s28.86-12.99,28.86-28.86c0-11.23-14.43-35.43-22.89-48.65
		C480.61,399.79,478.33,398.69,476.04,398.69z"/>
</g>
<g id="Erase_Button">
	
		<rect x="417.45" y="518.38" fill="#FFFFFF" stroke="url(#_x36__dpi_50_x25_)" stroke-width="6" stroke-miterlimit="10" width="117.17" height="117.17"/>
	<path d="M459.49,542.33l-22.06,22.06c-3.11,3.11-3.11,8.27,0,11.38l43.78,43.79c3.11,3.11,8.27,3.11,11.38,0l22.06-22.06
		c3.11-3.11,3.11-8.27,0-11.38l-43.78-43.79c-1.55-1.55-3.62-2.33-5.69-2.33C463.11,540,461.05,540.77,459.49,542.33z M508.75,591.8
		l-21.85,21.86l-21.73-21.74l21.85-21.85L508.75,591.8z"/>
</g>
<g id="Black_Erase_Button_copy" display="none">
	
		<rect x="417.45" y="518.38" display="inline" stroke="url(#_x36__dpi_60_x25_)" stroke-width="6" stroke-miterlimit="10" width="117.17" height="117.17"/>
	<path display="inline" fill="#FFFFFF" d="M459.49,542.33l-22.06,22.06c-3.11,3.11-3.11,8.27,0,11.38l43.78,43.79
		c3.11,3.11,8.27,3.11,11.38,0l22.06-22.06c3.11-3.11,3.11-8.27,0-11.38l-43.78-43.79c-1.55-1.55-3.62-2.33-5.69-2.33
		C463.11,540,461.05,540.77,459.49,542.33z M508.75,591.8l-21.85,21.86l-21.73-21.74l21.85-21.85L508.75,591.8z"/>
</g>
<g id="EXTRA_BUTTON">
	
		<rect x="417.45" y="656.25" fill="#FFFFFF" stroke="url(#_x36__dpi_50_x25_)" stroke-width="6" stroke-miterlimit="10" width="117.17" height="117.17"/>
</g>
<g id="Gallery_Button">
	<g>
		<path fill="#FFFFFF" d="M550.47,166.1v-1.39h7.39v8.93h-1.39v-2.95c-0.3,0.51-0.65,0.98-1.04,1.4c-0.39,0.42-0.84,0.78-1.36,1.08
			c-0.51,0.3-1.1,0.52-1.78,0.68c-0.67,0.16-1.43,0.24-2.28,0.24c-1.09,0-2.1-0.19-3.02-0.58c-0.93-0.38-1.73-0.96-2.4-1.72
			c-0.67-0.76-1.2-1.72-1.57-2.87c-0.38-1.15-0.56-2.5-0.56-4.03c0-1.26,0.16-2.44,0.48-3.54c0.32-1.1,0.81-2.05,1.48-2.86
			c0.66-0.81,1.5-1.44,2.5-1.91c1-0.46,2.18-0.7,3.54-0.7c0.91,0,1.76,0.11,2.56,0.34s1.5,0.56,2.14,1.02
			c0.63,0.46,1.16,1.02,1.6,1.7c0.43,0.68,0.74,1.48,0.94,2.41h-1.68c-0.14-0.64-0.39-1.22-0.73-1.73
			c-0.34-0.51-0.76-0.94-1.24-1.28s-1.02-0.61-1.61-0.79c-0.59-0.18-1.21-0.28-1.85-0.28c-1.14,0-2.11,0.2-2.93,0.6
			c-0.82,0.4-1.49,0.96-2.02,1.69s-0.92,1.6-1.16,2.62c-0.25,1.02-0.37,2.13-0.37,3.35c0,0.96,0.14,1.87,0.42,2.74
			c0.28,0.86,0.69,1.62,1.22,2.28s1.19,1.18,1.97,1.56c0.78,0.38,1.66,0.58,2.65,0.58c0.46,0,0.94-0.05,1.44-0.16
			c0.5-0.1,0.98-0.28,1.44-0.52c0.46-0.24,0.9-0.55,1.3-0.94c0.4-0.38,0.74-0.86,1.03-1.42c0.27-0.54,0.46-1.11,0.56-1.7
			c0.1-0.59,0.16-1.22,0.18-1.87H550.47z"/>
		<path fill="#FFFFFF" d="M560.21,173.64l6.79-17.28h1.85l6.62,17.28h-1.68l-1.99-5.42h-7.87l-2.04,5.42H560.21z M564.49,166.82
			h6.77l-3.38-9.07L564.49,166.82z"/>
		<path fill="#FFFFFF" d="M577.81,173.64v-17.28h1.63v15.89h9.26v1.39H577.81z"/>
		<path fill="#FFFFFF" d="M591.15,173.64v-17.28h1.63v15.89h9.26v1.39H591.15z"/>
		<path fill="#FFFFFF" d="M604.49,173.64v-17.28h11.5v1.39h-9.86v6.24h8.9v1.39h-8.9v6.86h10.1v1.39H604.49z"/>
		<path fill="#FFFFFF" d="M620.77,165.79v7.85l-1.63-0.02v-17.26h6.77c1.9,0,3.36,0.36,4.37,1.07c1.01,0.71,1.51,1.87,1.51,3.47
			c0,1.09-0.22,1.95-0.66,2.59c-0.44,0.64-1.16,1.18-2.15,1.63c0.51,0.18,0.91,0.43,1.2,0.77s0.5,0.72,0.65,1.15
			s0.24,0.89,0.28,1.37s0.07,0.94,0.08,1.39c0.02,0.66,0.04,1.2,0.08,1.63s0.09,0.78,0.14,1.06s0.12,0.48,0.2,0.64
			c0.08,0.15,0.18,0.27,0.29,0.35v0.14l-1.8,0.02c-0.18-0.29-0.3-0.69-0.37-1.2c-0.07-0.51-0.13-1.05-0.17-1.61
			c-0.04-0.56-0.07-1.1-0.1-1.63s-0.07-0.96-0.13-1.3c-0.1-0.46-0.25-0.84-0.47-1.12c-0.22-0.28-0.48-0.49-0.78-0.64
			c-0.3-0.14-0.64-0.24-1.02-0.29c-0.38-0.05-0.76-0.07-1.16-0.07H620.77z M625.85,164.4c0.61,0,1.17-0.06,1.69-0.19
			c0.52-0.13,0.97-0.33,1.36-0.61c0.38-0.28,0.69-0.64,0.91-1.07c0.22-0.43,0.34-0.95,0.34-1.56c0-0.64-0.12-1.17-0.35-1.58
			s-0.54-0.74-0.94-0.98c-0.39-0.24-0.84-0.41-1.34-0.5c-0.5-0.1-1.03-0.14-1.57-0.14h-5.18v6.65H625.85z"/>
		<path fill="#FFFFFF" d="M640.47,164.68l5.21-8.33h1.9l-6.26,9.74v7.54h-1.63v-7.42l-6.17-9.86h1.87L640.47,164.68z"/>
	</g>
</g>
<g id="About_Button">
	<g>
		<path fill="#FFFFFF" d="M486.44,169.31c-0.22,0.69-0.34,1.77-0.36,3.23h-7.38c0.11-3.08,0.4-5.21,0.88-6.38
			c0.47-1.18,1.7-2.53,3.66-4.06l2-1.56c0.66-0.49,1.18-1.03,1.59-1.61c0.73-1,1.09-2.11,1.09-3.31c0-1.39-0.41-2.65-1.22-3.79
			c-0.81-1.14-2.29-1.71-4.44-1.71c-2.11,0-3.61,0.7-4.5,2.11c-0.88,1.4-1.33,2.86-1.33,4.38h-7.9c0.22-5.2,2.03-8.88,5.44-11.05
			c2.15-1.39,4.79-2.08,7.93-2.08c4.12,0,7.54,0.98,10.27,2.95c2.73,1.97,4.09,4.89,4.09,8.75c0,2.37-0.59,4.37-1.78,5.99
			c-0.69,0.98-2.02,2.24-3.99,3.77l-1.94,1.5C487.49,167.26,486.78,168.21,486.44,169.31z M486.66,184.18h-8.15v-7.9h8.15V184.18z"
			/>
	</g>
</g>
<g id="DePic">
	<g>
		<path fill="#FFFFFF" d="M485.35,116.91h-22.32V65.09h22.32c3.21,0.05,5.88,0.42,8.02,1.12c3.63,1.2,6.57,3.39,8.82,6.57
			c1.8,2.58,3.04,5.37,3.69,8.37c0.66,3,0.98,5.86,0.98,8.58c0,6.89-1.38,12.73-4.15,17.51
			C498.97,113.69,493.18,116.91,485.35,116.91z M493.4,78.31c-1.66-2.81-4.96-4.22-9.88-4.22h-9.98v33.82h9.98
			c5.11,0,8.67-2.52,10.69-7.56c1.1-2.77,1.65-6.06,1.65-9.88C495.87,85.2,495.04,81.14,493.4,78.31z"/>
		<path fill="#FFFFFF" d="M547.02,105.66c-0.26,2.27-1.44,4.58-3.55,6.93c-3.28,3.73-7.88,5.59-13.78,5.59
			c-4.88,0-9.18-1.57-12.9-4.71c-3.73-3.14-5.59-8.25-5.59-15.33c0-6.63,1.68-11.72,5.04-15.26c3.36-3.54,7.73-5.31,13.1-5.31
			c3.19,0,6.06,0.6,8.61,1.79c2.55,1.2,4.66,3.08,6.33,5.66c1.5,2.27,2.47,4.91,2.92,7.91c0.26,1.76,0.36,4.29,0.32,7.59h-26.23
			c0.14,3.84,1.35,6.54,3.62,8.09c1.38,0.96,3.05,1.44,4.99,1.44c2.06,0,3.74-0.59,5.03-1.76c0.7-0.63,1.32-1.51,1.86-2.64H547.02z
			 M537.1,93.92c-0.16-2.65-0.97-4.66-2.41-6.03s-3.23-2.06-5.36-2.06c-2.32,0-4.12,0.73-5.4,2.18c-1.28,1.45-2.08,3.42-2.41,5.91
			H537.1z"/>
		<path fill="#FFFFFF" d="M577.08,98.28h-11v18.63h-10.76V65.09h22.57c5.2,0,9.35,1.34,12.45,4.01s4.64,6.81,4.64,12.41
			c0,6.12-1.55,10.44-4.64,12.97S582.82,98.28,577.08,98.28z M582.14,87.48c1.41-1.24,2.11-3.21,2.11-5.91
			c0-2.69-0.71-4.62-2.13-5.77c-1.42-1.15-3.4-1.72-5.96-1.72h-10.09v15.26h10.09C578.72,89.35,580.71,88.73,582.14,87.48z"/>
		<path fill="#FFFFFF" d="M612.58,64.77v9.25h-10.16v-9.25H612.58z M612.58,78.59v38.32h-10.16V78.59H612.58z"/>
		<path fill="#FFFFFF" d="M655.44,92.33h-10.27c-0.19-1.43-0.67-2.72-1.44-3.87c-1.12-1.55-2.87-2.32-5.24-2.32
			c-3.38,0-5.68,1.68-6.93,5.03c-0.66,1.78-0.98,4.15-0.98,7.1c0,2.81,0.33,5.07,0.98,6.79c1.2,3.19,3.45,4.78,6.75,4.78
			c2.34,0,4.01-0.63,4.99-1.9s1.58-2.91,1.79-4.92h10.23c-0.23,3.05-1.34,5.93-3.3,8.65c-3.14,4.38-7.79,6.57-13.96,6.57
			c-6.16,0-10.7-1.83-13.61-5.48c-2.91-3.66-4.36-8.4-4.36-14.24c0-6.59,1.6-11.71,4.82-15.36c3.21-3.66,7.64-5.48,13.29-5.48
			c4.8,0,8.74,1.08,11.79,3.23C653.07,83.07,654.88,86.87,655.44,92.33z"/>
		<path d="M663.96,112.81h-1.71c-0.03-0.24-0.11-0.45-0.24-0.64c-0.19-0.26-0.48-0.39-0.87-0.39c-0.56,0-0.95,0.28-1.15,0.84
			c-0.11,0.3-0.16,0.69-0.16,1.18c0,0.47,0.05,0.85,0.16,1.13c0.2,0.53,0.57,0.8,1.12,0.8c0.39,0,0.67-0.11,0.83-0.32
			s0.26-0.48,0.3-0.82h1.71c-0.04,0.51-0.22,0.99-0.55,1.44c-0.52,0.73-1.3,1.1-2.33,1.1s-1.78-0.3-2.27-0.91s-0.73-1.4-0.73-2.37
			c0-1.1,0.27-1.95,0.8-2.56s1.27-0.91,2.21-0.91c0.8,0,1.46,0.18,1.97,0.54S663.87,111.9,663.96,112.81z"/>
	</g>
	<g>
	</g>
	<g>
	</g>
	<g>
	</g>
	<g>
	</g>
	<g>
	</g>
	<g>
	</g>
	<g>
	</g>
	<g>
	</g>
	<g>
	</g>
	<g>
	</g>
	<g>
	</g>
	<g>
	</g>
	<g>
	</g>
	<g>
	</g>
	<g>
	</g>
</g>
</svg>
